<svg width="40" height="39" viewBox="0 0 40 39" fill="none" xmlns="http://www.w3.org/2000/svg">
<path fill-rule="evenodd" clip-rule="evenodd" d="M2.55133 33.5786C2.55133 34.2085 2.80814 34.8126 3.26526 35.258C3.72238 35.7034 4.34237 35.9536 4.98883 35.9536L34.2388 35.9536C34.8853 35.9536 35.5053 35.7034 35.9624 35.258C36.4195 34.8126 36.6763 34.2085 36.6763 33.5786L36.6763 5.07861C36.6763 4.44872 36.4195 3.84463 35.9624 3.39923C35.5053 2.95383 34.8853 2.70361 34.2388 2.70361L4.98883 2.70361C4.34237 2.70361 3.72238 2.95383 3.26526 3.39923C2.80814 3.84463 2.55133 4.44872 2.55133 5.07861L2.55133 33.5786ZM39.1138 33.5786C39.1138 34.8384 38.6002 36.0466 37.686 36.9374C36.7717 37.8282 35.5318 38.3286 34.2388 38.3286L4.98883 38.3286C3.6959 38.3286 2.45593 37.8282 1.54169 36.9374C0.627449 36.0466 0.113831 34.8384 0.113831 33.5786L0.113833 5.07861C0.113834 3.81883 0.627452 2.61065 1.54169 1.71985C2.45593 0.829056 3.6959 0.32861 4.98883 0.32861L34.2388 0.328613C35.5318 0.328613 36.7717 0.829059 37.686 1.71986C38.6002 2.61065 39.1138 3.81884 39.1138 5.07861L39.1138 33.5786ZM28.1451 20.5161C28.4683 20.5161 28.7783 20.391 29.0069 20.1683C29.2354 19.9456 29.3638 19.6436 29.3638 19.3286C29.3638 19.0137 29.2354 18.7116 29.0069 18.4889C28.7783 18.2662 28.4683 18.1411 28.1451 18.1411L14.0246 18.1411L19.258 13.0444C19.3713 12.934 19.4612 12.8029 19.5225 12.6586C19.5838 12.5144 19.6154 12.3598 19.6154 12.2036C19.6154 12.0475 19.5838 11.8929 19.5225 11.7486C19.4612 11.6043 19.3713 11.4733 19.258 11.3629C19.1446 11.2525 19.0101 11.1649 18.8621 11.1051C18.714 11.0454 18.5553 11.0146 18.3951 11.0146C18.2348 11.0146 18.0761 11.0454 17.9281 11.1051C17.78 11.1649 17.6455 11.2525 17.5322 11.3629L10.2197 18.4879C10.1062 18.5982 10.0162 18.7292 9.95472 18.8735C9.89328 19.0178 9.86165 19.1724 9.86165 19.3286C9.86165 19.4848 9.89328 19.6395 9.95472 19.7837C10.0162 19.928 10.1062 20.0591 10.2197 20.1694L17.5322 27.2944C17.6455 27.4048 17.78 27.4924 17.9281 27.5521C18.0761 27.6119 18.2348 27.6426 18.3951 27.6426C18.5553 27.6426 18.714 27.6119 18.8621 27.5521C19.0101 27.4924 19.1446 27.4048 19.258 27.2944C19.3713 27.184 19.4612 27.0529 19.5225 26.9086C19.5838 26.7644 19.6154 26.6098 19.6154 26.4536C19.6154 26.2975 19.5838 26.1429 19.5225 25.9986C19.4612 25.8543 19.3713 25.7233 19.258 25.6129L14.0246 20.5161L28.1451 20.5161Z" fill="#DC920F"/>
</svg>
