<svg width="40" height="39" viewBox="0 0 40 39" fill="none" xmlns="http://www.w3.org/2000/svg">
<path fill-rule="evenodd" clip-rule="evenodd" d="M36.7772 5.07861C36.7772 4.44872 36.5204 3.84463 36.0632 3.39923C35.6061 2.95384 34.9861 2.70361 34.3397 2.70361H5.08966C4.4432 2.70361 3.82321 2.95384 3.36609 3.39923C2.90897 3.84463 2.65216 4.44872 2.65216 5.07861V33.5786C2.65216 34.2085 2.90897 34.8126 3.36609 35.258C3.82321 35.7034 4.4432 35.9536 5.08966 35.9536H34.3397C34.9861 35.9536 35.6061 35.7034 36.0632 35.258C36.5204 34.8126 36.7772 34.2085 36.7772 33.5786V5.07861ZM0.214661 5.07861C0.214661 3.81883 0.728275 2.61065 1.64252 1.71986C2.55676 0.829058 3.79673 0.328613 5.08966 0.328613L34.3397 0.328613C35.6326 0.328613 36.8726 0.829058 37.7868 1.71986C38.701 2.61065 39.2147 3.81883 39.2147 5.07861V33.5786C39.2147 34.8384 38.701 36.0466 37.7868 36.9374C36.8726 37.8282 35.6326 38.3286 34.3397 38.3286H5.08966C3.79673 38.3286 2.55676 37.8282 1.64252 36.9374C0.728275 36.0466 0.214661 34.8384 0.214661 33.5786V5.07861ZM11.1834 18.1411C10.8602 18.1411 10.5502 18.2662 10.3216 18.4889C10.0931 18.7116 9.96466 19.0137 9.96466 19.3286C9.96466 19.6436 10.0931 19.9456 10.3216 20.1683C10.5502 20.391 10.8602 20.5161 11.1834 20.5161H25.3038L20.0705 25.6129C19.9572 25.7233 19.8673 25.8543 19.806 25.9986C19.7447 26.1429 19.7131 26.2975 19.7131 26.4536C19.7131 26.6098 19.7447 26.7644 19.806 26.9086C19.8673 27.0529 19.9572 27.184 20.0705 27.2944C20.1838 27.4048 20.3184 27.4924 20.4664 27.5521C20.6145 27.6119 20.7732 27.6426 20.9334 27.6426C21.0937 27.6426 21.2523 27.6119 21.4004 27.5521C21.5484 27.4924 21.683 27.4048 21.7963 27.2944L29.1088 20.1694C29.2223 20.0591 29.3123 19.928 29.3738 19.7837C29.4352 19.6395 29.4668 19.4848 29.4668 19.3286C29.4668 19.1724 29.4352 19.0178 29.3738 18.8735C29.3123 18.7292 29.2223 18.5982 29.1088 18.4879L21.7963 11.3629C21.683 11.2525 21.5484 11.1649 21.4004 11.1051C21.2523 11.0454 21.0937 11.0146 20.9334 11.0146C20.7732 11.0146 20.6145 11.0454 20.4664 11.1051C20.3184 11.1649 20.1838 11.2525 20.0705 11.3629C19.9572 11.4733 19.8673 11.6043 19.806 11.7486C19.7447 11.8929 19.7131 12.0475 19.7131 12.2036C19.7131 12.3598 19.7447 12.5144 19.806 12.6586C19.8673 12.8029 19.9572 12.934 20.0705 13.0444L25.3038 18.1411H11.1834Z" fill="#DC920F"/>
</svg>
