<svg width="1366" height="712" viewBox="0 0 1366 712" fill="none" xmlns="http://www.w3.org/2000/svg">
<g clip-path="url(#clip0)">
<path d="M0 44.9998C0 44.9998 218 121 375.5 79.5C533 38 570 -18.0004 733.5 10.9996C897 39.9996 1086 31.4992 1189.5 10.9996C1293 -9.5 1366 30.0001 1366 30.0001V712H0V44.9998Z" fill="#7D5843" fill-opacity="0.1"/>
<path d="M1343.5 358.5L1366 363V714H970C960.333 696.667 940.7 653.9 939.5 621.5C938 581 932 561 930 556C928 551 943 539.5 952.5 509C959.5 468 994 426 1014.5 412.5C1031.5 384.5 1067.5 363 1096.5 338C1125.5 313 1130 318.5 1166.5 322C1225.7 309.2 1290.5 327.333 1315.5 338L1343.5 358.5Z" fill="#F1B03E"/>
<g opacity="0.3">
<path d="M885.991 168.211C880.9 167.143 876.92 163.164 875.853 158.073C875.722 157.448 875.171 157 874.532 157C873.893 157 873.342 157.448 873.211 158.073C872.144 163.164 868.164 167.143 863.073 168.211C862.448 168.342 862 168.893 862 169.532C862 170.17 862.448 170.722 863.073 170.853C868.164 171.92 872.143 175.899 873.211 180.991C873.342 181.616 873.893 182.063 874.532 182.063C875.17 182.063 875.722 181.616 875.853 180.991C876.92 175.899 880.899 171.92 885.991 170.853C886.616 170.722 887.064 170.171 887.064 169.532C887.064 168.893 886.616 168.342 885.991 168.211Z" fill="#EB5757"/>
</g>
<g opacity="0.3">
<path d="M572.148 694.574C569.75 690.903 569.75 686.16 572.148 682.49C572.442 682.039 572.38 681.444 572 681.063C571.619 680.683 571.024 680.621 570.573 680.915C566.903 683.314 562.16 683.313 558.49 680.915C558.039 680.621 557.443 680.682 557.063 681.063C556.682 681.444 556.62 682.039 556.915 682.49C559.313 686.16 559.313 690.903 556.915 694.573C556.62 695.024 556.682 695.619 557.063 696C557.443 696.381 558.039 696.442 558.489 696.148C562.16 693.75 566.903 693.75 570.573 696.148C571.024 696.443 571.619 696.381 572 696C572.38 695.62 572.442 695.024 572.148 694.574Z" fill="#EB5757"/>
</g>
<path d="M1224.87 319.141C1263.03 324.496 1296.05 335.814 1332.24 348.025C1334.81 348.892 1336.69 345.434 1334.45 343.812C1304.3 321.982 1261.36 313.349 1224.73 315.692C1222.69 315.821 1223.02 318.884 1224.87 319.141Z" fill="#DC920F"/>
<path d="M1329.79 345.143C1331.1 366.046 1355.76 365.994 1370.54 369.607C1372.35 370.053 1374.29 368.449 1373.36 366.527C1370.12 359.79 1362.47 358.881 1355.76 357.988C1349.96 357.216 1345.27 355.903 1341.17 351.518C1338.47 348.627 1336.57 345.203 1333.28 342.92C1331.55 341.728 1329.68 343.289 1329.79 345.143Z" fill="#DC920F"/>
<path d="M1365.59 366.758C1375.4 375.056 1385.4 383.242 1394.86 391.935C1402.18 398.68 1408.71 407.046 1417.66 411.62C1419.58 412.598 1421.24 410.144 1420.54 408.479C1416.37 398.74 1406.84 391.549 1398.97 384.761C1389.32 376.446 1379.38 369.161 1368.33 362.854C1365.65 361.344 1363.24 364.776 1365.59 366.758Z" fill="#DC920F"/>
<path d="M1456.92 702.464C1440.89 722.749 1429.12 745.944 1413.61 766.607C1399.18 785.854 1381.98 798.948 1362.76 812.815C1361.04 814.059 1362.49 817.071 1364.52 816.573C1412.69 804.955 1440.31 744.777 1461.02 705.321C1462.48 702.541 1458.97 699.873 1456.92 702.464Z" fill="#DC920F"/>
<path d="M936.665 572.223C924.155 641.858 954.906 731.048 1012.1 774.279C1014.73 776.261 1017.74 772.622 1015.85 770.16C966.772 706.257 943.812 654.145 940.989 572.635C940.895 569.872 937.171 569.409 936.665 572.223Z" fill="#DC920F"/>
<path d="M1235.01 317.823C1200.82 307.371 1166.29 323.443 1132.25 315.103C1129.1 314.33 1126.03 318.621 1129.37 320.612C1141.39 327.794 1156.64 327.476 1170.3 325.846C1191.94 323.263 1212.96 322.826 1234.66 321.641C1236.65 321.538 1236.81 318.372 1235.01 317.823Z" fill="#DC920F"/>
<path d="M1133.04 316.08C1127.6 313.815 1120.8 315.522 1115.39 317.256C1110.45 318.843 1102.62 321.323 1100.95 326.755C1100.43 328.411 1101.42 330.547 1103.37 330.608C1108.22 330.753 1112.49 326.746 1117.01 325.064C1122.31 323.099 1128.11 323.305 1133.26 321.211C1135.6 320.268 1135.13 316.947 1133.04 316.08Z" fill="#DC920F"/>
<path d="M1104.1 324.583C1097.47 329.414 1093.89 336.587 1087.94 342.139C1080.64 348.961 1071.01 353.269 1062.66 358.7C1047.61 368.5 1034.02 380.264 1023.98 395.255C1022.74 397.092 1025.13 399.348 1026.86 397.89C1043.88 383.516 1060.35 370.207 1079.49 358.657C1092.09 351.055 1103.15 341.513 1107.34 326.865C1107.92 324.849 1105.79 323.347 1104.1 324.583Z" fill="#DC920F"/>
<path d="M995.104 423.17C980.389 435.278 970.358 453.349 962.182 470.357C951.474 492.624 949.534 519.628 936.321 540.326C933.738 544.367 939.581 548.495 942.439 544.608C954.056 528.776 955.626 508.456 962.353 490.359C971.165 466.667 986.18 447.746 998.175 425.967C999.265 423.985 997.051 421.565 995.104 423.17Z" fill="#DC920F"/>
<path d="M940.338 538.75C933.319 541.135 929.072 548.163 928.18 555.354C927.759 558.743 928.077 562.219 929.123 565.471C930.891 570.937 936.005 575.167 935.318 581.26C935.13 582.95 937.06 584.426 938.622 583.568C944.619 580.281 943.392 574.352 940.363 569.178C934.229 558.718 935.181 551.106 942.92 541.796C944.396 540.037 942.062 538.166 940.338 538.75Z" fill="#DC920F"/>
<path d="M1261.83 330.334C1266.64 332.015 1271.39 333.517 1276.53 333.56C1278.16 333.569 1279.55 331.183 1277.76 330.213C1273.07 327.665 1268.12 326.592 1262.9 325.657C1260.17 325.168 1259.28 329.441 1261.83 330.334Z" fill="#DC920F"/>
<path d="M1292.42 338.402C1297.99 340.119 1303.39 342.127 1308.7 344.538C1313.93 346.915 1318.93 350.261 1324.39 351.986C1326.57 352.673 1327.71 350.047 1326.15 348.639C1317.86 341.165 1304.23 337.819 1293.67 335.064C1291.48 334.481 1290.2 337.716 1292.42 338.402Z" fill="#DC920F"/>
<path d="M1330.38 361.312C1335.06 366.47 1341.97 372.699 1349.14 373.669C1350.88 373.909 1351.65 371.507 1350.29 370.545C1347.6 368.649 1344.4 367.594 1341.62 365.792C1338.55 363.809 1335.74 361.535 1333.17 358.953C1331.53 357.314 1328.78 359.553 1330.38 361.312Z" fill="#DC920F"/>
<path d="M1182.99 326.92C1172.77 325.255 1157.7 325.641 1147.95 329.16C1146.04 329.846 1146.75 332.824 1148.62 332.978C1154 333.407 1159.52 332.266 1164.9 331.871C1170.98 331.425 1177.11 331.605 1183.14 330.696C1185.36 330.361 1185.04 327.255 1182.99 326.92Z" fill="#DC920F"/>
<path d="M1026.73 391.363C1019.44 396.46 1016.25 405.367 1009.75 411.348C1002.77 417.775 993.828 422.014 988.44 430.055C987.136 432.003 989.195 433.985 991.177 433.298C1000.31 430.141 1009.66 422.263 1016.26 415.321C1022.01 409.272 1026.49 401.154 1029.81 393.534C1030.67 391.578 1028.19 390.342 1026.73 391.363Z" fill="#DC920F"/>
<path d="M1041.75 386.711C1037.41 388.067 1032.23 391.388 1030.04 395.429C1029.38 396.631 1030.15 398.647 1031.8 398.209C1036.29 397.034 1040.88 392.984 1043.22 389.045C1043.81 388.075 1043.1 386.291 1041.75 386.711Z" fill="#DC920F"/>
<path d="M1054.84 376.182C1053.29 377.487 1052.18 378.516 1051.24 380.293C1050.47 381.717 1051.72 383.837 1053.46 382.927C1055.38 381.923 1056.57 380.679 1057.96 379.031C1059.55 377.144 1056.65 374.664 1054.84 376.182Z" fill="#DC920F"/>
<path d="M1025.24 408.274C1024.05 409.878 1023.42 411.037 1023.01 412.933C1022.67 414.495 1024.83 415.37 1025.91 414.443C1027.35 413.199 1028.08 411.886 1028.88 410.179C1029.91 407.982 1026.59 406.446 1025.24 408.274Z" fill="#DC920F"/>
<path d="M993.628 433.467C991.243 438.384 987.45 442.529 985.16 447.394C984.284 449.248 986.73 450.363 988.085 449.445C992.676 446.313 995.439 439.877 997.206 434.789C998.021 432.429 994.675 431.296 993.628 433.467Z" fill="#DC920F"/>
<path d="M982.302 451.47C980.26 453.221 978.998 455.478 977.84 457.88C976.733 460.172 980.243 461.793 981.658 459.88C983.134 457.889 984.464 455.812 985.03 453.375C985.399 451.814 983.735 450.243 982.302 451.47Z" fill="#DC920F"/>
<path d="M942.879 580.471C942.682 586.503 942.373 592.57 942.656 598.602C942.767 601.005 946.766 600.807 946.877 598.43C947.152 592.578 946.826 586.675 946.629 580.822C946.56 578.471 942.965 577.991 942.879 580.471Z" fill="#DC920F"/>
<path d="M944.06 607.946C944.155 608.315 944.249 608.692 944.343 609.07C944.695 610.46 947.029 611.052 947.458 609.353C947.544 608.993 947.638 608.641 947.724 608.28C948.565 604.925 943.365 605.191 944.06 607.946Z" fill="#DC920F"/>
<path d="M944.816 619.761C945.623 624.094 945.889 629.071 947.888 633.035C948.703 634.64 951.492 634.374 951.552 632.392C951.68 627.947 949.861 623.356 948.737 619.074C948.094 616.628 944.344 617.203 944.816 619.761Z" fill="#DC920F"/>
<path d="M1233.11 444.615C1210.8 431.718 1180.54 431.744 1163.74 453.505C1150.23 471.002 1146.2 509.427 1176.46 511.546C1178.65 511.701 1179.43 508.569 1177.32 507.779C1148.92 497.105 1158.03 459.932 1179.95 447.533C1196.16 438.36 1214.64 441.449 1230.56 449.48C1233.35 450.879 1235.83 446.185 1233.11 444.615Z" fill="#DC920F"/>
<path d="M1179.17 511.342C1192.5 516.594 1205.91 509.712 1219.71 511.574C1230.12 512.981 1238.11 514.028 1246.95 506.94C1263.6 493.588 1263.8 467.674 1248.55 453.781C1246.78 452.168 1244.12 453.704 1244.99 456.072C1248.14 464.576 1253.62 470.754 1252.58 480.511C1250.78 497.51 1238.53 507.61 1221.74 504.718C1207.46 502.264 1194.27 509.557 1180.2 506.854C1177.54 506.348 1176.81 510.407 1179.17 511.342Z" fill="#DC920F"/>
<path d="M1366.08 414.727C1374.98 421.085 1384.68 426.174 1393.69 432.352C1402.35 438.281 1418.55 452.165 1411.8 464.659C1402.22 482.379 1384.26 456.49 1378.85 449.72C1373.99 443.636 1369.14 438.813 1361.75 436.127C1359.31 435.235 1357.98 438.899 1360.35 439.894C1375.44 446.201 1379.73 463.638 1393.78 471.095C1401.12 474.991 1414.3 476.2 1417.79 466.873C1428.1 439.268 1386.35 420.218 1368.1 410.865C1365.83 409.707 1364.12 413.319 1366.08 414.727Z" fill="#DC920F"/>
<path d="M1351.32 428.999C1346.25 425.241 1338.44 418.642 1342.95 411.597C1346.83 405.53 1353.04 414.703 1357.87 410.027C1358.88 409.057 1358.94 407.41 1357.71 406.56C1350.61 401.617 1340.27 400.579 1336.78 410.078C1333.18 419.869 1342.36 426.854 1349.34 431.822C1351.16 433.11 1353.1 430.321 1351.32 428.999Z" fill="#DC920F"/>
<path d="M984.208 595.862C984.963 613.29 975.877 626.522 979.867 644.147C982.535 655.955 987.434 670.868 995.603 679.973C1004.72 690.141 1020.23 691.548 1026.29 678.025C1027.26 675.854 1023.89 674.687 1022.87 676.755C1013.1 696.697 996.083 670.456 992.205 660.932C989.056 653.192 985.512 645.057 984.792 636.682C983.522 621.905 992.685 609.317 988.653 595.081C987.846 592.25 984.08 592.988 984.208 595.862Z" fill="#DC920F"/>
<path d="M1028.87 665.13C1022.3 652.421 1017.5 638.374 1013.37 624.688C1010.96 616.69 1009.42 607.946 1005.09 600.687C999.971 592.089 988.954 585.138 984.39 598.121C983.489 600.695 987.384 603.004 988.783 600.421C995.999 587.189 1004.89 615.257 1005.44 617.145C1006.78 621.796 1007.97 626.472 1009.46 631.08C1013.55 643.694 1019.61 654.927 1025.72 666.631C1026.76 668.605 1029.91 667.138 1028.87 665.13Z" fill="#DC920F"/>
<path d="M1048.08 420.48C1033.08 426.186 1008.26 444.103 1009.05 462.518C1009.36 469.691 1013.98 475.329 1021.18 475.921C1029.92 476.642 1036.33 470.077 1041.32 463.822C1042.43 462.432 1040.31 460.484 1039 461.711C1033.93 466.491 1027.39 473.098 1019.57 470.807C1009.11 467.735 1015.88 453.671 1020.17 448.119C1028.24 437.667 1038.62 430.785 1049.76 424.032C1051.92 422.736 1050.47 419.57 1048.08 420.48Z" fill="#DC920F"/>
<path d="M1052.08 423.805C1060.42 419.746 1057.14 432.78 1056 434.831C1054.99 436.659 1053.71 438.358 1052.55 440.1C1049.8 444.236 1046.52 448.269 1045.09 453.066C1044.49 455.099 1046.79 456.919 1048.54 455.477C1053.12 451.693 1056.29 445.815 1059.42 440.804C1061.93 436.796 1064.43 432.274 1063.81 427.366C1062.97 420.81 1055.55 416.914 1050.01 420.587C1048.16 421.805 1050.15 424.74 1052.08 423.805Z" fill="#DC920F"/>
<path d="M1127.52 371.026C1134.98 366.822 1142.7 363.14 1150.95 360.729C1155.11 359.511 1159.49 358.481 1163.8 357.906C1166.12 357.735 1168.43 357.554 1170.75 357.383C1180.76 367.448 1181.9 373.326 1174.17 375.034C1169.83 377.436 1164.32 377.917 1159.78 380.165C1153.08 383.486 1124.14 404.003 1123.35 380.508C1123.24 377.093 1117.91 376.492 1117.97 380.002C1118.13 392.11 1130.37 397.155 1141.1 394.461C1151.2 391.921 1159.18 384.241 1169.11 381.006C1174.11 379.376 1180.39 378.749 1184.39 375.059C1193.28 366.865 1185.53 355.032 1175.65 352.758C1159.46 349.042 1138.83 358.85 1125.61 367.028C1123.25 368.495 1125 372.451 1127.52 371.026Z" fill="#DC920F"/>
<path d="M1233.43 677.273C1217.37 672.913 1183.66 659.827 1171.19 677.89C1159.08 695.421 1179.72 713.561 1192.07 723.198C1211.47 738.326 1233.88 743.578 1256.12 730.603C1270.07 722.477 1284.88 702.861 1267.22 690.316C1264.85 688.634 1261.58 691.98 1263.71 694.16C1278.61 709.434 1261.36 720.435 1252.38 725.506C1243.54 730.5 1233.51 733.555 1223.23 732.113C1209.95 730.251 1198.22 721.336 1188.45 712.635C1184.32 708.953 1177.84 703.565 1176 698.133C1168.01 674.449 1187.04 674.286 1198.1 675.17C1209.62 676.088 1221.07 679.649 1232.5 681.314C1234.82 681.649 1235.73 677.899 1233.43 677.273Z" fill="#DC920F"/>
<path d="M1259.6 688.877C1256.96 682.827 1247 676.383 1240.77 681.257C1239.38 682.33 1240.29 684.363 1241.82 684.612C1244.33 685.024 1246.7 684.303 1249.22 685.179C1252.02 686.157 1254.24 688.173 1255.75 690.713C1257.12 693.039 1260.71 691.443 1259.6 688.877Z" fill="#DC920F"/>
<path d="M1427.14 569.758C1421.95 556.406 1410.76 552.218 1397.39 551.755C1380.06 551.154 1384.89 553.522 1373.64 548.082C1369.14 545.911 1363.97 542.934 1359.08 541.715C1353.47 540.316 1348.77 539.922 1343.5 542.65C1315.63 557.101 1320.45 603.112 1346.75 615.279C1348.49 616.086 1349.77 613.435 1348.27 612.362C1333.64 601.927 1326.1 585.589 1331.64 567.587C1335.36 555.539 1338.75 552.235 1351.16 549.738C1365.42 546.872 1363.87 548.202 1376.43 554.329C1380.59 556.354 1383.14 557.615 1387.78 557.976C1392.68 558.353 1397.69 556.122 1402.48 556.637C1412.05 557.658 1418.89 564.334 1423.89 571.86C1425.18 573.791 1427.89 571.688 1427.14 569.758Z" fill="#DC920F"/>
<path d="M1359.5 619.945C1376.11 627.076 1392.39 609.099 1406.35 602.568C1417.3 597.446 1434.19 586.857 1426.03 572.552C1425 570.742 1421.97 571.471 1422.4 573.711C1426.07 593.129 1407.69 596.304 1395.15 603.375C1384.14 609.579 1374.98 622.888 1360.6 616.95C1358.69 616.152 1357.61 619.138 1359.5 619.945Z" fill="#DC920F"/>
<path d="M1101.83 558.625C1085.26 556.84 1070.38 572.32 1068.74 588.238C1067.15 603.623 1080.1 628.508 1095.32 633.914C1112.43 639.989 1117.52 618.099 1116 606C1114.69 595.523 1128.85 562.744 1107.87 560.95C1105.79 560.77 1105.08 563.773 1107.05 564.52C1122.95 570.518 1111.16 587.929 1110.91 598.818C1110.78 604.224 1114.39 611.217 1112.97 616.143C1109.68 620.648 1106.4 625.161 1103.11 629.666C1097.05 629.718 1092.28 627.341 1088.78 622.536C1067.89 599.762 1069.94 570.81 1101.96 561.825C1103.64 561.362 1103.76 558.831 1101.83 558.625Z" fill="#DC920F"/>
<path d="M1229.51 557.7C1218.57 566.169 1216.19 583.983 1229.85 591.363C1239.92 596.803 1257.43 587.647 1253.89 575.042C1253.36 573.145 1250.3 572.33 1249.63 574.656C1247.44 582.293 1241.56 591.011 1232.2 586.858C1220.73 581.769 1224.07 567.01 1231.79 560.385C1233.53 558.91 1231.31 556.31 1229.51 557.7Z" fill="#DC920F"/>
<path d="M965.941 481.515C965.143 488.809 964.456 496.06 962.586 503.182C960.904 509.583 957.798 515.556 956.322 521.966C955.833 524.111 958.321 525.664 959.814 523.793C968.249 513.265 971.131 495.107 970.591 481.953C970.479 479.052 966.275 478.426 965.941 481.515Z" fill="#DC920F"/>
<path d="M970.9 500.922C971.286 504.586 970.102 507.727 969.879 511.305C969.785 512.849 971.861 514.325 973.114 512.995C976.391 509.486 976.512 504.612 975.508 500.107C974.847 497.155 970.591 497.944 970.9 500.922Z" fill="#DC920F"/>
<path d="M1220.1 338.695C1232.3 339.296 1244.02 341.904 1256.11 343.037C1258.52 343.26 1258.93 340.128 1256.99 339.15C1245.89 333.555 1232.09 332.86 1219.91 333.898C1217.19 334.13 1217.4 338.558 1220.1 338.695Z" fill="#DC920F"/>
<path d="M1266.11 460.457C1254.7 441.099 1224.16 423.139 1201.24 428.098C1199.59 428.459 1198.97 431.265 1200.92 431.728C1211.52 434.251 1222.01 434.5 1232.21 439.108C1244.63 444.703 1253.15 453.206 1262.46 462.826C1264.07 464.49 1267.45 462.731 1266.11 460.457Z" fill="#DC920F"/>
<path d="M1176.3 436.437C1156.08 441.731 1129.95 473.875 1147.12 493.818C1148.67 495.628 1151.98 493.689 1150.74 491.483C1140.03 472.494 1158.44 446.022 1177.39 439.852C1179.3 439.217 1178.26 435.922 1176.3 436.437Z" fill="#DC920F"/>
<path d="M1165.79 512.618C1171.33 518.222 1177.83 518.539 1185.45 518.419C1196.88 518.239 1209.56 518.797 1220.67 516.077C1222.84 515.545 1222.83 512.387 1220.5 512.095C1213.29 511.203 1205.91 512.232 1198.68 512.764C1189.74 513.425 1176.24 516.995 1168.95 509.933C1167.06 508.105 1163.89 510.705 1165.79 512.618Z" fill="#DC920F"/>
<path d="M1191.98 526.222C1196.84 526.574 1201.85 527.243 1206.62 525.956C1208.37 525.484 1209.11 522.627 1206.98 522.052C1201.99 520.705 1196.89 521.348 1191.8 521.717C1189.22 521.898 1189.46 526.042 1191.98 526.222Z" fill="#DC920F"/>
<path d="M1118.39 555.006C1090.24 539.157 1052.31 562.875 1059.46 596.135C1059.84 597.937 1062.88 598.031 1062.87 595.998C1062.68 566.153 1087.95 546.305 1116.5 558.61C1118.6 559.52 1120.43 556.156 1118.39 555.006Z" fill="#DC920F"/>
<path d="M1069.98 618.644C1073.14 626.89 1078.68 633.78 1086.46 638.079C1093.12 641.761 1102.9 644.901 1110.22 641.563C1112.21 640.662 1111.43 637.976 1109.53 637.633C1102.3 636.303 1095.8 636.844 1089.02 633.163C1082.16 629.438 1076.86 624.024 1073.72 616.867C1072.64 614.405 1069.04 616.181 1069.98 618.644Z" fill="#DC920F"/>
<path d="M1121.22 600.309C1120.96 605.354 1120.49 610.365 1119.71 615.359C1118.93 620.294 1117.35 625.253 1117.35 630.247C1117.35 631.904 1119.77 633.345 1120.77 631.509C1125.56 622.679 1125.65 610.588 1125.91 600.755C1125.99 597.743 1121.37 597.262 1121.22 600.309Z" fill="#DC920F"/>
<path d="M1178.64 670.198C1194.25 666.825 1207.4 671.665 1222.41 674.797C1238.4 678.135 1255.28 673.819 1268.8 684.554C1270.67 686.047 1272.52 683.395 1271.4 681.696C1262.31 667.889 1242.91 672.214 1228.65 670.138C1210.94 667.563 1195.01 659.283 1177.26 665.856C1174.83 666.765 1176.13 670.738 1178.64 670.198Z" fill="#DC920F"/>
<path d="M1171.82 710.806C1183.6 731.255 1211.5 750.605 1236.29 742.993C1238.3 742.375 1238.53 739.295 1236.13 739.055C1224.35 737.87 1213.73 738.154 1202.61 733.082C1191.2 727.882 1181.63 719.344 1174.8 708.884C1173.7 707.202 1170.82 709.056 1171.82 710.806Z" fill="#DC920F"/>
<path d="M1328.09 552.094C1337.47 542.457 1349.78 536.597 1363.51 538.793C1374.14 540.492 1382.87 547.451 1393.7 548.275C1395.68 548.43 1396.3 545.65 1394.47 544.903C1382.13 539.892 1369.53 532.632 1355.81 533.353C1343.58 533.997 1332.65 539.857 1324.91 549.185C1323.36 551.073 1326.37 553.87 1328.09 552.094Z" fill="#DC920F"/>
<path d="M1338.49 397.42C1349.09 399.874 1359.47 402.603 1369.41 407.116C1380.54 412.162 1389.72 419.456 1399.85 426.08C1401.36 427.067 1403.25 425.136 1402.01 423.703C1387.11 406.464 1361.66 395.901 1339.39 393.455C1337.15 393.215 1336.18 396.888 1338.49 397.42Z" fill="#DC920F"/>
<path d="M1331.47 400.287C1328.07 403.153 1326.03 407.932 1328.28 412.111C1329.07 413.57 1331.8 413.45 1331.78 411.494C1331.77 408.43 1331.81 405.847 1334.32 403.659C1336.48 401.797 1333.65 398.45 1331.47 400.287Z" fill="#DC920F"/>
<path d="M1142.57 356.062C1163.62 350.253 1181.95 345.8 1196.6 365.725C1197.74 367.278 1200.34 365.956 1199.96 364.146C1194.67 338.154 1158.08 345.98 1141.47 352.621C1139.59 353.368 1140.57 356.612 1142.57 356.062Z" fill="#DC920F"/>
<path d="M1129.32 357.849C1112.88 362.895 1101.12 384.553 1110.94 400.385C1112.53 402.942 1116.27 401.243 1115.2 398.36C1109.75 383.73 1114.92 367.16 1130.51 361.565C1132.57 360.827 1131.44 357.197 1129.32 357.849Z" fill="#DC920F"/>
<path d="M970.756 633.277C971.871 656.746 980.297 690.924 1007.74 696.012C1009.59 696.355 1010.62 693.498 1009.01 692.554C998.813 686.539 990.422 680.215 984.742 669.463C978.753 658.102 976.908 645.076 975.235 632.496C974.84 629.501 970.619 630.437 970.756 633.277Z" fill="#DC920F"/>
<path d="M1030.68 658.789C1031.62 663.053 1031.72 667.215 1031.39 671.548C1031.12 675.118 1030.19 678.542 1030.37 682.129C1030.46 683.974 1033.1 684.24 1034.03 682.944C1038.97 676.045 1037.07 665.628 1034.93 658.042C1034.18 655.425 1030.07 656.034 1030.68 658.789Z" fill="#DC920F"/>
<path d="M1098.38 712.123C1097.07 717.546 1098.33 722.652 1102.25 726.719C1105.35 729.954 1111.43 733.636 1115.57 730.461C1116.87 729.465 1116.53 727.586 1115.39 726.668C1112.91 724.651 1109.54 725.003 1107.04 722.652C1104.5 720.258 1103.08 716.722 1103.29 713.247C1103.45 710.51 1099.08 709.206 1098.38 712.123Z" fill="#DC920F"/>
<path d="M1112.34 442.094C1107.93 438.859 1101.75 439.27 1097.97 443.346C1094.88 446.684 1093.01 453.85 1097.52 456.75C1098.62 457.462 1100.35 457.11 1100.77 455.737C1101.46 453.481 1100.68 451.104 1101.69 448.924C1103.23 445.569 1107.18 444.822 1110.42 445.732C1112.63 446.35 1114.31 443.544 1112.34 442.094Z" fill="#DC920F"/>
<path d="M1096.38 456.923C1088.13 453.379 1073.9 463.402 1081.11 472.163C1082.31 473.622 1084.52 472.729 1084.79 471.005C1085.52 466.165 1088.37 459.6 1094.55 461.883C1097.76 463.076 1099.49 458.262 1096.38 456.923Z" fill="#DC920F"/>
<path opacity="0.2" d="M941.224 376.101C908.971 401.502 882.428 442.866 880.757 484.873C880.659 487.331 884.546 488.565 885.216 485.892C895.851 443.483 910.776 409.207 943.771 379.095C945.63 377.397 943.217 374.528 941.224 376.101Z" fill="#DC920F"/>
<path opacity="0.2" d="M868.73 581.527C843.68 696.717 905.916 821.889 1013.09 871.315C1016.18 872.736 1018.93 867.588 1015.88 865.988C910.706 810.726 854.279 699.603 872.939 581.929C873.377 579.186 869.293 578.935 868.73 581.527Z" fill="#DC920F"/>
<path opacity="0.2" d="M1256.47 241.953C1196.11 219.993 1128.19 222.191 1072.07 254.975C1070.01 256.181 1071.43 259.363 1073.69 258.371C1133.15 232.05 1192.57 225.418 1254.92 246.162C1257.65 247.065 1259.19 242.936 1256.47 241.953Z" fill="#DC920F"/>
<path opacity="0.2" d="M1151.06 192.164C1125.44 188.938 1097.2 194.068 1076.88 210.871C1075.24 212.22 1077.02 215.197 1078.95 214.071C1101.8 200.718 1123.76 193.067 1150.69 196.204C1153.29 196.508 1153.65 192.486 1151.06 192.164Z" fill="#DC920F"/>
<path opacity="0.2" d="M953.612 269.759C924.666 291.933 893.315 319.551 874.985 351.592C873.725 353.791 876.514 355.677 878.167 353.818C903.619 325.36 926.203 297.019 956.651 273.343C959.037 271.484 956.007 267.926 953.612 269.759Z" fill="#DC920F"/>
<path opacity="0.2" d="M1015.12 223.136C1024.17 218.936 1034.75 215.03 1042.77 209.033C1044.17 207.987 1043.02 205.306 1041.26 205.824C1031.64 208.648 1022.19 214.735 1013.37 219.472C1011.09 220.696 1012.73 224.245 1015.12 223.136Z" fill="#DC920F"/>
<path opacity="0.2" d="M912.673 265.274C902.199 274.346 890.644 282.935 881.126 293.008C879.643 294.572 881.519 296.869 883.307 295.582C894.567 287.511 904.621 277.206 915.015 268.045C916.766 266.499 914.443 263.737 912.673 265.274Z" fill="#DC920F"/>
<path opacity="0.2" d="M699.561 590.167L697.531 589.65C684.341 586.24 690.788 606.955 699.312 599.282L700.551 598.161C701.432 597.435 701.98 596.409 702.075 595.302C702.17 594.195 701.806 593.097 701.06 592.244L699.978 591.299C689.748 582.179 685.7 603.328 696.481 600.537L698.614 599.985C703.214 598.796 705.19 591.624 699.561 590.167Z" fill="#DC920F"/>
<path opacity="0.3" d="M706.561 679.167L704.531 678.65C691.341 675.24 697.788 695.955 706.312 688.282L707.551 687.161C708.432 686.435 708.98 685.409 709.075 684.302C709.17 683.195 708.806 682.097 708.06 681.244L706.978 680.299C696.748 671.179 692.7 692.328 703.481 689.537L705.614 688.985C710.214 687.796 712.19 680.624 706.561 679.167Z" fill="#F2F2F2"/>
<path opacity="0.3" d="M681.235 467C691.787 467 693.419 451 682.79 451C672.16 451 670.611 467 681.235 467Z" fill="#DC920F"/>
<path opacity="0.3" d="M715.426 396C723.339 396 724.564 384 716.595 384C708.627 384 707.452 396 715.426 396Z" fill="#F2F2F2"/>
<path opacity="0.2" d="M752.617 511C757.907 511 758.697 504 753.396 504C748.095 504 747.293 511 752.617 511Z" fill="#F2F2F2"/>
<path opacity="0.3" d="M578.383 511C573.093 511 572.303 504 577.604 504C582.905 504 583.707 511 578.383 511Z" fill="#F2F2F2"/>
<path opacity="0.3" d="M786.069 492C792.006 492 792.922 483 786.947 483C780.971 483 780.088 492 786.069 492Z" fill="#EB5757"/>
<path opacity="0.3" d="M544.931 492C538.994 492 538.078 483 544.053 483C550.029 483 550.912 492 544.931 492Z" fill="#DC920F"/>
<path opacity="0.3" d="M776.01 697.361C774.601 698.009 773.375 699.004 772.442 700.256C771.833 701.076 770.611 704.134 771.579 701.669C770.388 703.625 769.848 705.917 770.037 708.208C770.22 709.43 770.613 710.608 771.2 711.691L770.416 707.186V707.768C770.321 709.34 770.569 710.914 771.141 712.378C771.712 713.843 772.595 715.161 773.725 716.241C774.825 717.339 776.173 718.147 777.652 718.596C779.13 719.045 780.694 719.121 782.209 718.818C784.407 718.4 786.445 717.359 788.085 715.816C789.725 714.272 790.901 712.289 791.476 710.096C792.429 705.88 790.692 713.306 791.615 709.206C791.784 708.577 791.899 707.935 791.96 707.287C792.193 704.564 791.404 701.852 789.749 699.695C788.506 698.031 786.748 696.839 784.758 696.307C782.768 695.776 780.66 695.937 778.77 696.764C777.597 697.359 776.571 698.214 775.767 699.265C774.962 700.317 774.401 701.537 774.124 702.838C773.266 706.644 774.788 699.695 773.894 703.648C773.241 706.563 774.189 702.519 774.538 702.028L778.236 698.854C774.932 700.024 784.903 698.409 780.048 698.611C777.546 698.709 775.162 699.719 773.336 701.456L785.313 702.468C784.065 701.279 786.81 705.06 785.043 702.281C784.736 701.626 784.267 701.063 783.681 700.646C782.22 699.239 782.589 699.733 784.789 702.129L785.477 706.088C785.544 704.829 785.309 705.446 784.774 707.94C785.633 706.646 786.053 705.103 785.971 703.545C785.89 701.986 785.31 700.497 784.321 699.303C783.331 698.108 781.985 697.272 780.486 696.922C778.987 696.572 777.416 696.726 776.01 697.361Z" fill="#DC920F"/>
<path opacity="0.3" d="M536.01 538.361C534.601 539.009 533.375 540.004 532.442 541.256C531.833 542.076 530.611 545.134 531.579 542.669C530.388 544.625 529.848 546.917 530.037 549.208C530.22 550.43 530.613 551.608 531.2 552.691L530.416 548.186V548.768C530.321 550.34 530.569 551.914 531.141 553.378C531.712 554.843 532.595 556.161 533.725 557.241C534.825 558.339 536.173 559.147 537.652 559.596C539.13 560.045 540.694 560.121 542.209 559.818C544.407 559.4 546.445 558.359 548.085 556.816C549.725 555.272 550.901 553.289 551.476 551.096C552.429 546.88 550.692 554.306 551.615 550.206C551.784 549.577 551.899 548.935 551.96 548.287C552.193 545.564 551.404 542.852 549.749 540.695C548.506 539.031 546.748 537.839 544.758 537.307C542.768 536.776 540.66 536.937 538.77 537.764C537.597 538.359 536.571 539.214 535.767 540.265C534.962 541.317 534.401 542.537 534.124 543.838C533.266 547.644 534.788 540.695 533.894 544.648C533.241 547.563 534.189 543.519 534.538 543.028L538.236 539.854C534.932 541.024 544.903 539.409 540.048 539.611C537.546 539.709 535.162 540.719 533.336 542.456L545.313 543.468C544.065 542.279 546.81 546.06 545.043 543.281C544.736 542.626 544.267 542.063 543.681 541.646C542.22 540.239 542.589 540.733 544.789 543.129L545.477 547.088C545.544 545.829 545.309 546.446 544.774 548.94C545.633 547.646 546.053 546.103 545.971 544.545C545.89 542.986 545.31 541.497 544.321 540.303C543.331 539.108 541.985 538.272 540.486 537.922C538.987 537.572 537.416 537.726 536.01 538.361Z" fill="#DC920F"/>
<path opacity="0.3" d="M981.01 89.3611C979.601 90.009 978.375 91.0044 977.442 92.2564C976.833 93.0764 975.611 96.1337 976.579 93.6687C975.388 95.6251 974.848 97.9173 975.037 100.208C975.22 101.43 975.613 102.608 976.2 103.691L975.416 99.1859V99.7681C975.321 101.34 975.569 102.914 976.141 104.378C976.712 105.843 977.595 107.161 978.725 108.241C979.825 109.339 981.173 110.147 982.652 110.596C984.13 111.045 985.694 111.121 987.209 110.818C989.407 110.4 991.445 109.359 993.085 107.816C994.725 106.272 995.901 104.289 996.476 102.096C997.429 97.88 995.692 105.306 996.615 101.206C996.784 100.577 996.899 99.9355 996.96 99.2872C997.193 96.5641 996.404 93.8521 994.749 91.6946C993.506 90.0312 991.748 88.8387 989.758 88.3074C987.768 87.7761 985.66 87.9368 983.77 88.7639C982.597 89.3593 981.571 90.2142 980.767 91.2654C979.962 92.3166 979.401 93.5375 979.124 94.8379C978.266 98.6444 979.788 91.6946 978.894 95.6478C978.241 98.5634 979.189 94.519 979.538 94.0281L983.236 90.8543C979.932 92.0236 989.903 90.4089 985.048 90.6114C982.546 90.7091 980.162 91.7192 978.336 93.4561L990.313 94.4684C989.065 93.2789 991.81 97.06 990.043 94.2811C989.736 93.6259 989.267 93.0625 988.681 92.6462C987.22 91.239 987.589 91.7334 989.789 94.1293L990.477 98.0876C990.544 96.8289 990.309 97.4464 989.774 99.9402C990.633 98.6457 991.053 97.1028 990.971 95.5446C990.89 93.9863 990.31 92.4974 989.321 91.3027C988.331 90.1079 986.985 89.2723 985.486 88.9221C983.987 88.5718 982.416 88.7259 981.01 89.3611Z" fill="#DC920F"/>
<path opacity="0.3" d="M1172.76 93.7636C1171.48 93.7336 1170.24 94.1589 1169.24 94.9637C1168.77 95.3761 1168.4 95.889 1168.16 96.4642C1167.91 97.0394 1167.8 97.6623 1167.83 98.2867C1167.86 98.911 1168.03 99.5208 1168.32 100.071C1168.62 100.621 1169.04 101.097 1169.54 101.464C1170.59 102.196 1171.84 102.555 1173.11 102.482C1173.74 102.544 1174.37 102.47 1174.97 102.267C1175.56 102.063 1176.11 101.734 1176.56 101.303C1177.02 100.871 1177.38 100.346 1177.62 99.7637C1177.86 99.1813 1177.97 98.5548 1177.94 97.9264C1177.91 97.2981 1177.75 96.6825 1177.47 96.1212C1177.19 95.5598 1176.79 95.0658 1176.3 94.6724C1175.81 94.2789 1175.24 93.9953 1174.63 93.8405C1174.02 93.6856 1173.38 93.6633 1172.76 93.775L1172.76 93.7636Z" fill="#DC920F"/>
<path opacity="0.2" d="M1250.75 170.964C1249.45 172.009 1248.49 173.424 1248.01 175.023C1247.97 175.511 1248.04 176.003 1248.22 176.46C1248.39 176.917 1248.67 177.327 1249.03 177.66C1249.39 177.992 1249.83 178.238 1250.3 178.378C1250.77 178.518 1251.26 178.549 1251.74 178.468C1253.09 178.055 1254.27 177.251 1255.15 176.158C1258.37 173.118 1253.72 167.818 1250.75 170.964Z" fill="#DC920F"/>
<path opacity="0.2" d="M1249.02 87.0308C1248.89 88.7827 1249.44 90.5163 1250.56 91.8699C1251.68 93.2236 1253.28 94.0926 1255.03 94.2958C1256.78 94.4402 1258.52 93.8927 1259.88 92.7702C1261.24 91.6477 1262.1 90.0391 1262.29 88.2877C1262.42 86.5358 1261.87 84.8023 1260.75 83.4486C1259.63 82.095 1258.03 81.2259 1256.28 81.0227C1254.53 80.8784 1252.79 81.4258 1251.43 82.5484C1250.07 83.6709 1249.21 85.2795 1249.02 87.0308Z" fill="#F2F2F2"/>
<path opacity="0.3" d="M696.018 271.031C695.89 272.783 696.444 274.516 697.563 275.87C698.683 277.224 700.282 278.093 702.027 278.296C703.782 278.44 705.525 277.893 706.882 276.77C708.24 275.648 709.105 274.039 709.292 272.288C709.42 270.536 708.867 268.802 707.747 267.449C706.628 266.095 705.029 265.226 703.284 265.023C701.528 264.878 699.786 265.426 698.428 266.548C697.071 267.671 696.206 269.279 696.018 271.031Z" fill="#DC920F"/>
<path opacity="0.3" d="M722.018 249.031C721.89 250.783 722.444 252.516 723.563 253.87C724.683 255.224 726.282 256.093 728.027 256.296C729.782 256.44 731.525 255.893 732.882 254.77C734.24 253.648 735.105 252.039 735.292 250.288C735.42 248.536 734.867 246.802 733.747 245.449C732.628 244.095 731.029 243.226 729.284 243.023C727.528 242.878 725.786 243.426 724.428 244.548C723.071 245.671 722.206 247.279 722.018 249.031Z" fill="#F2F2F2"/>
<path d="M1385.01 126.655C1378.15 119.839 1369.24 115.502 1359.67 114.324C1350.09 113.147 1340.4 115.195 1332.11 120.148C1320.31 119.857 1314.59 131.886 1311.98 143.053C1308.04 159.859 1309.39 175.848 1321.37 189.077C1342.84 212.798 1383.83 205.082 1393.6 174.486C1396.88 166.523 1397.81 157.783 1396.29 149.303C1394.76 140.824 1390.85 132.962 1385.01 126.655ZM1385.4 181.666C1372.84 197.875 1351.81 206.398 1332.48 193.721C1323.82 188.113 1317.51 179.499 1314.77 169.52C1311.78 158.323 1313.22 133.284 1326.03 125.481C1326.1 126.262 1326.78 127.012 1327.6 126.502C1329.59 125.269 1331.66 124.17 1333.8 123.21C1334.48 123.14 1335.17 123.11 1335.86 123.118C1336.03 123.121 1336.2 123.089 1336.36 123.025C1336.52 122.96 1336.66 122.865 1336.78 122.744C1336.9 122.622 1337 122.478 1337.07 122.319C1337.13 122.159 1337.16 121.989 1337.16 121.817C1352.67 116.024 1370.65 117.606 1382.45 130.927C1395.68 145.9 1392.93 164.927 1385.4 181.666ZM1327.27 148.575C1326.96 148.363 1326.59 148.236 1326.22 148.206C1325.84 148.176 1325.46 148.244 1325.12 148.403C1324.77 148.563 1324.48 148.808 1324.26 149.116C1324.03 149.424 1323.9 149.784 1323.85 150.162C1323.81 151.142 1323.9 152.091 1323.94 153.051C1323.66 153.212 1323.4 153.407 1323.16 153.632C1323.16 153.444 1323.16 153.234 1323.16 153.045C1323.19 152.556 1323.02 152.075 1322.7 151.704C1322.38 151.333 1321.93 151.1 1321.45 151.054C1320.96 151.008 1320.48 151.152 1320.09 151.457C1319.71 151.761 1319.46 152.202 1319.39 152.688C1318.62 155.872 1318.56 159.187 1319.21 162.398C1319.86 165.609 1321.21 168.636 1323.15 171.265C1324.71 173.092 1326.84 174.337 1329.19 174.8C1331.54 175.263 1333.98 174.916 1336.11 173.817C1338.08 172.396 1339.53 170.364 1340.23 168.034C1340.93 165.704 1340.86 163.206 1340.01 160.925C1337.47 155.338 1332.92 150.925 1327.27 148.575ZM1335.18 168.989C1332.03 173.072 1326.6 169.744 1324.68 166.259C1324.29 165.486 1323.99 164.671 1323.78 163.829C1324.39 164.433 1325.11 164.914 1325.9 165.248C1326.5 165.903 1327.2 166.452 1327.98 166.871C1328.48 167.693 1328.88 168.535 1329.46 169.321C1329.77 169.681 1330.19 169.931 1330.66 170.031C1331.12 170.131 1331.61 170.077 1332.04 169.877C1332.72 169.667 1333.34 169.305 1333.86 168.818C1334.38 168.331 1334.79 167.731 1335.04 167.064C1335.3 166.397 1335.4 165.68 1335.34 164.968C1335.28 164.256 1335.06 163.566 1334.7 162.951C1334.92 162.606 1335.04 162.205 1335.05 161.794C1335.06 161.383 1334.95 160.978 1334.74 160.624C1334.27 159.894 1333.83 159.149 1333.38 158.414C1336.37 161.487 1338.12 165.161 1335.18 168.979V168.989ZM1354.61 138.781C1354.99 138.831 1355.38 138.778 1355.73 138.628C1356.08 138.477 1356.39 138.234 1356.62 137.924C1356.85 137.614 1356.99 137.249 1357.03 136.865C1357.07 136.482 1357 136.095 1356.85 135.744C1356.3 134.367 1355.32 133.21 1354.06 132.452C1353.18 131.185 1351.96 130.191 1350.55 129.584C1349.13 128.976 1347.58 128.78 1346.06 129.017C1344.54 129.253 1343.12 129.913 1341.95 130.922C1340.79 131.931 1339.93 133.248 1339.47 134.724C1339.44 134.919 1339.44 135.12 1339.47 135.316C1339.18 135.899 1339.05 136.557 1339.12 137.209C1339.27 138.219 1339.66 139.177 1340.26 140.007C1340.85 140.837 1341.63 141.515 1342.53 141.986C1344.4 143.013 1346.57 143.358 1348.67 142.964C1350.76 142.57 1352.66 141.46 1354.04 139.822C1354.26 139.491 1354.45 139.139 1354.61 138.771V138.781ZM1343.98 137.081C1344.55 136.553 1345.22 136.145 1345.95 135.882C1346.68 135.619 1347.46 135.506 1348.23 135.55C1349.12 135.565 1349.99 135.795 1350.77 136.219C1350.51 139.057 1345.38 139.322 1343.98 137.071V137.081ZM1376.52 135.04C1375.08 133.943 1373.01 136.117 1374.34 137.439C1374.99 138.108 1375.59 138.815 1376.14 139.557C1371.83 147.942 1376.51 159.461 1377.87 167.963C1377.96 168.406 1378.18 168.814 1378.49 169.137C1378.81 169.46 1379.21 169.684 1379.65 169.782C1380.09 169.881 1380.55 169.849 1380.97 169.691C1381.39 169.533 1381.76 169.255 1382.02 168.892C1385.65 163.631 1387.1 157.162 1386.07 150.847C1385.04 144.532 1381.62 138.863 1376.52 135.035V135.04ZM1380.44 159.981C1380.03 157.198 1379.78 154.393 1379.71 151.581C1379.97 153.269 1380.41 154.923 1381.03 156.511C1380.91 157.671 1380.71 158.822 1380.44 159.956V159.981ZM1359.56 179.094C1358.33 178.971 1357.1 179.199 1355.99 179.751C1354.89 180.304 1353.96 181.159 1353.32 182.217C1353.04 181.843 1352.84 181.414 1352.74 180.957C1352.39 179.339 1349.69 179.257 1349.69 181.079C1349.65 182.601 1350.12 184.093 1351.01 185.323C1351.9 186.554 1353.17 187.455 1354.62 187.888C1356.14 188.487 1357.81 188.623 1359.41 188.277C1361.01 187.931 1362.47 187.119 1363.61 185.943C1366.34 182.769 1362.98 179.416 1359.56 179.089V179.094ZM1357.74 160.466L1357.35 160.594C1356.65 160.064 1356.15 159.301 1355.95 158.441C1355.75 157.58 1355.86 156.676 1356.26 155.888C1357.04 154.194 1354.3 152.724 1353.36 154.357C1352.44 155.886 1352.1 157.701 1352.41 159.463C1352.72 161.224 1353.65 162.813 1355.04 163.931C1358.16 166.299 1363.63 162.911 1364.21 159.338C1364.77 155.939 1361.24 151.943 1358 154.745C1357.22 155.473 1356.75 156.481 1356.71 157.551C1356.66 158.621 1357.03 159.668 1357.74 160.466Z" fill="white" fill-opacity="0.3"/>
</g>
<defs>
<clipPath id="clip0">
<rect width="1366" height="712" fill="white"/>
</clipPath>
</defs>
</svg>
