<svg width="209" height="250" viewBox="0 0 209 250" fill="none" xmlns="http://www.w3.org/2000/svg">
<path d="M193.852 104.522L172.379 135.153C170.66 133.715 168.472 132.84 166.065 132.84C160.658 132.84 156.251 137.247 156.251 142.654C156.251 146.28 158.22 149.468 161.158 151.156L135.715 187.445L96.9262 242.769L58.4808 187.945L28.881 145.718C30.9751 143.405 32.2567 140.341 32.2567 136.966C32.2567 129.808 26.443 123.994 19.2852 123.994C17.5349 123.994 15.8783 124.338 14.3467 124.963L0 104.522C3.00062 96.4574 6.97019 88.8308 11.7524 81.8606C13.3152 82.517 15.0344 82.8921 16.8472 82.8921C24.005 82.8921 29.8186 77.0784 29.8186 69.9207C29.8186 67.5452 29.1623 65.2947 28.037 63.3568C46.3221 47.0097 70.452 37.0389 96.895 37.0389C141.373 37.0701 179.287 65.1384 193.852 104.522Z" fill="#DC920F"/>
<path d="M207.293 109.648L185.82 140.279C184.1 138.841 181.913 137.966 179.506 137.966C174.098 137.966 169.691 142.373 169.691 147.78C169.691 151.406 171.66 154.594 174.599 156.282L149.156 192.571L110.367 247.895L71.9211 193.071L42.29 150.812C44.3842 148.499 45.6657 145.436 45.6657 142.061C45.6657 134.903 39.852 129.089 32.6942 129.089C30.9439 129.089 33.9445 113.68 32.4129 114.336L13.4403 109.648C16.4409 101.583 20.4105 93.9569 25.1927 86.9867C26.7555 87.6431 28.4746 88.0182 30.2875 88.0182C37.4452 88.0182 43.2589 82.2045 43.2589 75.0467C43.2589 72.6712 42.6025 70.4208 41.4773 68.4829C59.7623 52.1358 83.8923 42.1649 110.335 42.1649C154.813 42.1962 192.727 70.2645 207.293 109.648Z" stroke="#DC920F" stroke-width="2.18795" stroke-miterlimit="10"/>
<path d="M174.067 112.554C177.52 112.554 180.318 109.756 180.318 106.303C180.318 102.851 177.52 100.052 174.067 100.052C170.615 100.052 167.816 102.851 167.816 106.303C167.816 109.756 170.615 112.554 174.067 112.554Z" fill="black"/>
<path d="M29.8186 107.741C32.1836 107.741 34.1008 105.824 34.1008 103.459C34.1008 101.094 32.1836 99.1767 29.8186 99.1767C27.4537 99.1767 25.5365 101.094 25.5365 103.459C25.5365 105.824 27.4537 107.741 29.8186 107.741Z" fill="black"/>
<path d="M141.31 64.8259C143.675 64.8259 145.593 62.9087 145.593 60.5437C145.593 58.1788 143.675 56.2616 141.31 56.2616C138.945 56.2616 137.028 58.1788 137.028 60.5437C137.028 62.9087 138.945 64.8259 141.31 64.8259Z" stroke="#DC920F" stroke-width="2.50052" stroke-miterlimit="10"/>
<path d="M75.4218 151.594C77.0158 153.938 78.7349 157.282 78.8287 160.814C78.985 167.441 78.4224 177.943 88.9246 178.474C97.0512 178.912 101.427 173.254 103.865 166.472C105.678 161.44 109.21 151.781 110.366 147.218L75.4218 151.594Z" fill="black"/>
<path d="M122.338 144.311C122.338 144.311 122.15 157.22 119.931 164.221C117.993 170.316 110.617 177.818 106.741 182.35" stroke="black" stroke-width="2.50052" stroke-miterlimit="10"/>
<path d="M58.3557 149.062C58.8558 153.532 60.2311 162.127 63.3568 166.597C64.7321 168.566 70.0769 174.692 70.0769 174.692" stroke="black" stroke-width="2.50052" stroke-miterlimit="10"/>
<path d="M94.7695 147.687C95.0821 147.812 94.7695 147.687 95.0821 147.843C99.7705 150.125 109.304 146.53 115.368 145.561C122.807 144.342 128.339 145.843 128.339 145.843" stroke="black" stroke-width="2.50052" stroke-miterlimit="10"/>
<path d="M96.3948 126.495C94.707 125.245 93.2692 123.776 92.1439 122.15C93.8318 123.15 95.6446 123.838 97.4575 124.213L96.3948 126.495Z" fill="black"/>
<path d="M102.896 127.12C100.958 126.807 98.8953 126.276 96.9262 125.37C96.9262 125.37 97.2075 109.085 105.709 108.085C113.773 107.116 113.898 124.995 113.086 126.807C113.054 126.901 112.992 126.964 112.961 126.964C112.398 126.995 108.053 127.901 102.896 127.12Z" fill="#DC920F" stroke="black" stroke-width="2.50052" stroke-miterlimit="10"/>
<path d="M112.992 125.338C113.054 125.838 113.086 126.307 113.086 126.807C113.054 126.901 112.992 126.964 112.961 126.964C112.398 127.026 108.053 127.933 102.896 127.151C102.865 126.901 102.834 126.62 102.802 126.37C102.177 120.056 103.959 114.711 106.772 114.43C109.585 114.117 112.367 119.025 112.992 125.338Z" fill="black" stroke="black" stroke-width="2.50052" stroke-miterlimit="10"/>
<path d="M108.405 120.176C109.298 120.089 109.95 119.28 109.862 118.37C109.773 117.459 108.977 116.791 108.083 116.878C107.19 116.966 106.537 117.774 106.626 118.685C106.715 119.596 107.511 120.263 108.405 120.176Z" fill="#DC920F"/>
<path d="M102.927 100.364C102.99 101.115 103.115 101.833 103.24 102.552C103.396 103.271 103.584 103.959 103.834 104.615C104.084 105.272 104.396 105.897 104.772 106.334C104.959 106.553 105.178 106.709 105.334 106.772C105.522 106.835 105.678 106.835 105.834 106.803L105.553 109.304C104.99 109.179 104.428 108.897 104.021 108.522C103.615 108.147 103.334 107.71 103.146 107.303C102.771 106.459 102.646 105.678 102.584 104.865C102.521 104.084 102.552 103.334 102.615 102.552C102.677 101.833 102.771 101.083 102.927 100.364Z" fill="black"/>
<path d="M102.177 110.96C101.646 110.96 101.083 110.835 100.614 110.585C100.146 110.335 99.7393 109.991 99.4579 109.616C98.8641 108.866 98.614 108.085 98.4265 107.335C98.2389 106.584 98.1452 105.834 98.1139 105.084C98.0827 104.334 98.0827 103.584 98.1452 102.865C98.3015 103.584 98.489 104.271 98.739 104.959C98.9891 105.647 99.2704 106.303 99.6142 106.897C99.9581 107.491 100.364 108.022 100.833 108.304C101.052 108.46 101.271 108.522 101.458 108.554C101.646 108.585 101.833 108.554 102.021 108.491L102.177 110.96Z" fill="black"/>
<path d="M60.4499 124.182C58.7621 122.932 57.3243 121.463 56.199 119.837C57.8869 120.837 59.6998 121.525 61.5126 121.9L60.4499 124.182Z" fill="black"/>
<path d="M66.9513 124.807C65.0134 124.494 62.9504 123.963 60.9813 123.057C60.9813 123.057 61.2626 106.772 69.7643 105.772C77.8285 104.803 77.9535 122.682 77.1409 124.494C77.1096 124.588 77.0471 124.651 77.0158 124.651C76.4532 124.682 72.0773 125.62 66.9513 124.807Z" fill="#DC920F" stroke="black" stroke-width="2.50052" stroke-miterlimit="10"/>
<path d="M77.0158 123.025C77.0783 123.525 77.1096 123.994 77.1096 124.494C77.0783 124.588 77.0158 124.651 76.9846 124.651C76.422 124.713 72.0773 125.62 66.92 124.838C66.8887 124.588 66.8575 124.307 66.8262 124.057C66.2011 117.743 67.9827 112.398 70.7958 112.117C73.6089 111.836 76.422 116.712 77.0158 123.025Z" fill="black" stroke="black" stroke-width="2.50052" stroke-miterlimit="10"/>
<path d="M72.458 117.862C73.3514 117.775 74.0038 116.966 73.915 116.055C73.8263 115.145 73.0301 114.477 72.1367 114.564C71.2432 114.651 70.5909 115.46 70.6796 116.371C70.7684 117.281 71.5646 117.949 72.458 117.862Z" fill="#DC920F"/>
<path d="M66.9513 98.0515C67.0138 98.8016 67.1388 99.5205 67.2638 100.239C67.4201 100.958 67.6076 101.646 67.8577 102.302C68.1077 102.959 68.4203 103.584 68.7954 104.021C68.9829 104.24 69.2017 104.397 69.358 104.459C69.5455 104.522 69.7018 104.522 69.8581 104.49L69.5768 106.991C69.0142 106.866 68.4516 106.584 68.0452 106.209C67.6389 105.834 67.3576 105.397 67.1701 104.99C66.795 104.146 66.67 103.365 66.6074 102.552C66.5449 101.771 66.5762 101.021 66.6387 100.239C66.7325 99.5205 66.8262 98.8016 66.9513 98.0515Z" fill="black"/>
<path d="M62.1378 100.552C62.294 101.271 62.4816 101.959 62.7316 102.646C62.9817 103.334 63.263 103.99 63.6068 104.584C63.9506 105.178 64.357 105.709 64.8258 105.991C65.0446 106.147 65.2634 106.209 65.4509 106.241C65.6385 106.272 65.826 106.241 66.0136 106.178L66.2324 108.679C65.701 108.679 65.1384 108.554 64.6695 108.304C64.2007 108.054 63.7944 107.71 63.513 107.335C62.9192 106.584 62.6691 105.803 62.4816 105.053C62.294 104.303 62.2003 103.553 62.169 102.802C62.0752 102.021 62.0752 101.302 62.1378 100.552Z" fill="black"/>
<path d="M70.9834 136.591C69.1392 136.372 70.0769 135.747 64.2007 133.528C58.3245 131.308 50.8542 131.871 51.073 139.404C51.2918 146.937 56.7617 149.812 62.4816 149.781C68.2015 149.75 70.3895 148.749 74.7029 151.219C79.0163 153.688 82.392 155.032 88.8933 151.75C95.4259 148.468 98.8328 141.748 98.1765 137.216C97.5201 132.652 92.3003 129.558 83.4859 132.402C74.7341 135.215 78.2974 137.403 70.9834 136.591Z" stroke="black" stroke-width="2.50052" stroke-miterlimit="10"/>
<path d="M75.203 137.435C75.078 137.278 73.4526 135.903 69.233 135.278C64.5758 134.59 58.0432 138.435 58.8559 142.029C59.8248 146.28 62.2941 148.874 65.3572 149.656C68.4203 150.437 73.2338 146.53 74.8279 144.874C76.2657 143.436 77.1409 139.779 75.203 137.435Z" fill="black" stroke="black" stroke-width="2.50052" stroke-miterlimit="10"/>
<path d="M159.783 69.233C159.377 69.7019 152.219 74.8279 145.718 81.6106C140.123 87.4243 135.059 94.4882 135.153 100.927C135.247 108.335 140.81 115.368 145.03 122.119" stroke="black" stroke-width="2.50052" stroke-miterlimit="10"/>
<path d="M72.2336 72.5775C86.4866 65.7636 105.178 64.6071 123.463 75.328" stroke="black" stroke-width="2.50052" stroke-miterlimit="10"/>
<path d="M130.027 79.1413C139.716 72.4837 159.783 69.233 159.783 69.233C162.158 74.6091 163.065 88.3307 159.783 97.8639C158.251 102.334 155.563 106.741 152.907 110.554C149.937 114.836 146.999 118.337 145.905 120.244C145.53 120.9 145.217 121.494 144.967 122.119C144.499 123.338 144.311 124.588 144.373 126.214C144.467 128.433 145.124 131.34 146.343 135.778C149.312 146.593 140.779 155.282 136.091 159.814C132.746 163.065 119.868 173.317 108.366 181.256C107.803 181.631 107.241 182.038 106.678 182.413C99.5205 187.257 93.1442 191.008 90.2686 191.258C82.2044 192.008 80.5791 183.663 77.1409 180.225C76.8283 179.912 76.4845 179.6 76.1094 179.287C74.6716 178.037 72.7337 176.693 70.0457 174.786C69.7331 174.567 69.4205 174.348 69.0767 174.098C64.9196 171.129 59.1059 166.847 50.7604 159.814C34.5071 146.093 44.9467 129.464 47.6973 123.15C50.6979 116.305 45.9782 110.335 44.9155 106.397C43.5402 101.146 47.1034 93.2067 54.0111 85.8302C55.7615 83.9548 57.7306 82.1419 59.8873 80.3916" stroke="black" stroke-width="2.50052" stroke-miterlimit="10"/>
<path d="M54.0736 85.7364C54.855 74.0153 54.7925 62.6379 54.8863 59.5748C55.1676 50.7917 56.6054 48.385 65.5447 56.1366C68.7954 58.9497 74.4841 63.9819 80.3916 69.3581" stroke="black" stroke-width="2.50052" stroke-miterlimit="10"/>
<path d="M123.463 74.6716C125.338 72.5149 125.62 71.2334 125.12 69.4831C123.557 64.2007 121.275 61.7315 119.806 60.5437C120.994 61.4814 125.213 63.8569 128.089 68.5141C130.277 72.0461 131.933 76.7971 130.746 78.7037" stroke="black" stroke-width="2.50052" stroke-miterlimit="10" stroke-linecap="square"/>
<path d="M108.679 188.539C113.68 185.163 119.806 181.412 129.558 184.319C131.496 184.882 133.559 185.976 135.715 187.476" stroke="black" stroke-width="2.50052" stroke-miterlimit="10"/>
<path d="M58.512 187.976C59.6685 187.414 60.8875 186.945 62.1378 186.476C67.0138 184.788 72.3899 186.914 74.9842 188.039" stroke="black" stroke-width="2.50052" stroke-miterlimit="10"/>
<path d="M71.9211 196.978C71.9211 196.978 73.9215 193.477 74.9842 188.039C75.7968 184.038 76.3907 180.256 76.1407 179.193" stroke="black" stroke-width="2.50052" stroke-miterlimit="10"/>
<path d="M111.554 198.916C111.304 197.666 108.679 192.321 108.679 188.539C108.429 185.444 108.241 182.381 108.397 181.194" stroke="black" stroke-width="2.50052" stroke-miterlimit="10"/>
<path d="M66.3784 139.344C67.7077 139.039 68.651 138.206 68.4853 137.482C68.3195 136.759 67.1075 136.419 65.7781 136.724C64.4488 137.028 63.5055 137.862 63.6712 138.585C63.837 139.309 65.049 139.649 66.3784 139.344Z" fill="#DC920F"/>
<path d="M145.186 114.649C141.842 109.335 138.341 104.584 140.154 98.9579C141.842 93.7068 148.281 85.3301 152.438 80.9542C152.969 82.4545 154.907 88.8933 154.938 89.2997C156.157 102.865 145.436 114.18 145.186 114.649Z" fill="black"/>
<path d="M90.1748 155.532C87.4243 156.313 85.7677 158.439 83.736 161.565C81.6731 164.784 79.1413 172.379 86.7679 175.349C94.3945 178.287 99.9269 168.441 101.021 166.503C102.084 164.565 106.647 153.594 104.709 152.782C102.74 151.938 95.8635 153.094 90.6437 166.409C90.6437 166.409 92.8942 159.095 92.9879 156.439C93.0192 154.657 91.2688 155.22 90.1748 155.532Z" fill="#DC920F"/>
<path d="M93.6131 54.6675C96.565 54.6675 98.9579 52.2886 98.9579 49.3539C98.9579 46.4193 96.565 44.0403 93.6131 44.0403C90.6612 44.0403 88.2682 46.4193 88.2682 49.3539C88.2682 52.2886 90.6612 54.6675 93.6131 54.6675Z" fill="black"/>
</svg>
